<?xml version="1.0" encoding="utf-8"?>
<!-- Generator: Adobe Illustrator 18.1.1, SVG Export Plug-In . SVG Version: 6.00 Build 0)  -->
<svg version="1.1" id="Layer_1" xmlns="http://www.w3.org/2000/svg" xmlns:xlink="http://www.w3.org/1999/xlink" x="0px" y="0px"
	 width="256px" height="256px" viewBox="0 0 256 256" style="enable-background:new 0 0 256 256;" xml:space="preserve">
<style type="text/css">
	.st0{fill:#512200;stroke:#000000;stroke-miterlimit:10;}
</style>
<g>
	<path class="st0" d="M210.7,109.5c2.7,10.4,4.2,21.4,4.2,32.9c0,1.3,0,2.7-0.1,4l13.5,5.3l11.2-9.2l8.5,10.1l-16.7,13.8l-17.4-7
		c-2,15.4-6.7,29.7-13.4,42.1l2.4-3.2l13.1,7.5l12.4-7.5l6.9,11.2l-18.6,11.2l-20.5-12c-16,24.9-40.8,40.8-68.7,40.8
		c-27.8,0-52.5-15.9-68.6-40.7l-20.2,11.8l-18.6-11.2l6.9-11.2l12.4,7.5l13.1-7.5l0.9,1.3c-6.1-11.9-10.4-25.4-12.3-39.9l-16.9,6.8
		L7.6,152.4l8.5-10.1l11.2,9.2l12.9-5c0-1.4-0.1-2.8-0.1-4.2c0-11.5,1.5-22.5,4.2-32.9l-21.8-0.8l-9.5-19.4L25,83.6l6.3,12.9
		l15.1,0.7l0.3,4.3c9-26.8,26.7-48.1,48.7-58.8c0.4-8.2,7.2-14.8,15.6-14.8h36.6c8.7,0,15.7,7,15.7,15.6c0,0.4-0.1,0.7-0.1,1.1
		c20.7,11.4,37.2,32.4,45.6,58.4l0.4-5.9l15.1-0.7l6.3-12.9l11.9,5.7l-9.5,19.4L210.7,109.5z"/>
	<polygon class="st0" points="171.8,14.3 170,18.9 167.4,20.1 161.8,21.6 157.1,24.5 150.5,28.1 150.5,24.5 157.9,19.2 163.3,17.6 
		168.1,14.3 170.8,8.9 176.1,7.1 174.7,12.2 	"/>
	<polygon class="st0" points="96.9,21.6 91.3,20.1 88.7,18.9 86.9,14.3 84,12.2 82.5,7.1 87.8,8.9 90.6,14.3 95.3,17.6 100.7,19.2 
		108.1,24.5 108.1,28.1 101.6,24.5 	"/>
</g>
<g>
</g>
<g>
</g>
<g>
</g>
<g>
</g>
<g>
</g>
<g>
</g>
<g>
</g>
<g>
</g>
<g>
</g>
<g>
</g>
<g>
</g>
<g>
</g>
<g>
</g>
<g>
</g>
<g>
</g>
</svg>
