<svg xmlns="http://www.w3.org/2000/svg" width="256" height="256" viewBox="0 0 256 256"><style type="text/css">.st0{fill:#512200;stroke:#000000;stroke-miterlimit:10;}</style><path class="st0" d="M210.7 109.5c2.7 10.4 4.2 21.4 4.2 32.9 0 1.3 0 2.7-.1 4l13.5 5.3 11.2-9.2 8.5 10.1-16.7 13.8-17.4-7c-2 15.4-6.7 29.7-13.4 42.1l2.4-3.2 13.1 7.5 12.4-7.5 6.9 11.2-18.6 11.2-20.5-12c-16 24.9-40.8 40.8-68.7 40.8-27.8 0-52.5-15.9-68.6-40.7l-20.2 11.8-18.6-11.2 6.9-11.2 12.4 7.5 13.1-7.5.9 1.3c-6.1-11.9-10.4-25.4-12.3-39.9l-16.9 6.8-16.6-14 8.5-10.1 11.2 9.2 12.9-5-.1-4.2c0-11.5 1.5-22.5 4.2-32.9l-21.8-.8-9.5-19.4 12-5.6 6.3 12.9 15.1.7.3 4.3c9-26.8 26.7-48.1 48.7-58.8.4-8.2 7.2-14.8 15.6-14.8h36.6c8.7 0 15.7 7 15.7 15.6l-.1 1.1c20.7 11.4 37.2 32.4 45.6 58.4l.4-5.9 15.1-.7 6.3-12.9 11.9 5.7-9.5 19.4-22.3.9zM171.8 14.3l-1.8 4.6-2.6 1.2-5.6 1.5-4.7 2.9-6.6 3.6v-3.6l7.4-5.3 5.4-1.6 4.8-3.3 2.7-5.4 5.3-1.8-1.4 5.1zM96.9 21.6l-5.6-1.5-2.6-1.2-1.8-4.6-2.9-2.1-1.5-5.1 5.3 1.8 2.8 5.4 4.7 3.3 5.4 1.6 7.4 5.3v3.6l-6.5-3.6z"/></svg>